<svg id="Layer_1" data-name="Layer 1" xmlns="http://www.w3.org/2000/svg" xmlns:xlink="http://www.w3.org/1999/xlink" viewBox="0 0 595.27559 217.53191"><defs><style>.cls-1{fill:url(#linear-gradient);}.cls-2{fill:#137764;}.cls-3{fill:#2dd4bf;}</style><linearGradient id="linear-gradient" x1="101.52885" y1="116.54648" x2="207.15513" y2="29.76933" gradientUnits="userSpaceOnUse"><stop offset="0" stop-color="#2dd4bf"/><stop offset="0.37042" stop-color="#2cd2bd"/><stop offset="0.55359" stop-color="#29cab6"/><stop offset="0.69565" stop-color="#25bdaa"/><stop offset="0.8166" stop-color="#1eaa99"/><stop offset="0.92294" stop-color="#159284"/><stop offset="0.98964" stop-color="#0e7f72"/></linearGradient></defs><polygon class="cls-1" points="64.834 67.63 118.198 67.63 118.198 185.238 154.644 185.238 154.644 67.63 207.159 67.63 207.159 53.419 188.103 43.892 169.048 34.364 64.834 34.364 64.834 67.63"/><polygon class="cls-2" points="207.159 53.419 187.328 43.504 169.048 34.364 188.033 60.633 207.159 53.419"/><polygon class="cls-3" points="207.159 53.419 187.328 43.504 169.048 34.364 188.051 60.561 207.159 53.419"/><path class="cls-3" d="M243.02416,185.56576q-17.38449,0-30.16888-7.68852a53.08985,53.08985,0,0,1-19.76582-20.67608,59.62259,59.62259,0,0,1-6.98956-28.76285q0-16.37264,7.28214-29.16108A54.48235,54.48235,0,0,1,213.05033,79.105a53.568,53.568,0,0,1,27.97449-7.3878,60.34649,60.34649,0,0,1,22.968,4.08808A47.22671,47.22671,0,0,1,280.8653,87.29745a50.2986,50.2986,0,0,1,10.48434,17.07565,59.92265,59.92265,0,0,1,3.5923,21.07433q0,3.19407-.29258,6.2906A21.28013,21.28013,0,0,1,293.544,137.029h-81.6803V115.06062H276.574l-14.17418,10.38681q1.975-8.59472-.21131-15.28762A20.41109,20.41109,0,0,0,254.5,99.57794a22.6734,22.6734,0,0,0-13.47522-3.893,23.31961,23.31961,0,0,0-13.39394,3.79549,22.80814,22.80814,0,0,0-8.38747,11.18329c-1.8693,4.9252-2.58451,10.92322-2.1944,17.9778a33.18574,33.18574,0,0,0,2.1944,16.17351,23.45,23.45,0,0,0,9.20021,10.8907,30.82072,30.82072,0,0,0,28.65718.699,23.05479,23.05479,0,0,0,8.89137-8.79384l23.95955,11.38648a36.26878,36.26878,0,0,1-10.078,13.98724,49.612,49.612,0,0,1-16.2873,9.28148A61.57611,61.57611,0,0,1,243.02416,185.56576Z"/><path class="cls-3" d="M312.52962,183.16818V31.96616h29.95757v151.202Z"/><path class="cls-3" d="M364.46366,64.32131V34.36374h29.95757V64.32131Zm0,118.84687V74.11482h29.95757V183.16818Z"/><path class="cls-3" d="M468.91692,184.3629q-19.774,0-30.67278-10.67939-10.87446-10.6916-10.87446-29.86V100.07371H408.98552V74.11482h1.0078q8.38746,0,12.87379-4.20186,4.51069-4.19374,4.50257-12.58121V49.34252h29.95757v24.7723H482.896v25.95889H457.32725v41.75042a19.36078,19.36078,0,0,0,1.99934,9.28961,12.24314,12.24314,0,0,0,6.19308,5.486,26.32015,26.32015,0,0,0,10.3868,1.80428,27.90945,27.90945,0,0,0,3.18594-.20319c1.20286-.13,2.47073-.2682,3.80362-.39824v25.3656c-1.99934.2682-4.275.52828-6.7945.79648A68.33877,68.33877,0,0,1,468.91692,184.3629Z"/><path class="cls-3" d="M500.48371,64.32131V34.36374h29.95757V64.32131Zm0,118.84687V74.11482h29.95757V183.16818Z"/></svg>